# Exported from ProBuilder
# http://www.procore3d.com/probuilder
# 5/19/2018 3:16:53 PM

mtllib ./Left_Gun.mtl
o Left Gun

g Left Gun
v -1.375 0.5 -1.5
v -1.4375 0.5000014 -1.5
v -1.375 0.4999999 -1.875
v -1.5 0.4999999 -1.875
v -1.4375 0.5000014 -1.5
v -1.4375 0.3749986 -1.5
v -1.5 0.4999999 -1.875
v -1.5 0.3749999 -1.875
v -1.4375 0.3749986 -1.5
v -1.375 0.375 -1.5
v -1.5 0.3749999 -1.875
v -1.375 0.3749999 -1.875
v -1.375 0.375 -1.5
v -1.375 0.5 -1.5
v -1.375 0.3749999 -1.875
v -1.375 0.4999999 -1.875
v -1.375 0.4999999 -1.875
v -1.5 0.4999999 -1.875
v -1.375 0.3749999 -1.875
v -1.5 0.3749999 -1.875
v -1.375 0.375 -1.5
v -1.4375 0.3749986 -1.5
v -1.375 0.5 -1.5
v -1.4375 0.5000014 -1.5

vn 7.311501E-06 1 -2.556377E-06
vn 2.193448E-05 1 -7.430704E-06
vn 0 1 -1.192093E-07
vn 7.311501E-06 1 -2.556377E-06
vn -0.9863939 9.798839E-09 0.1643989
vn -0.9863939 1.542732E-14 0.1643989
vn -0.986394 1.959788E-08 0.1643989
vn -0.9863939 9.798839E-09 0.1643989
vn 7.232027E-06 -1 -2.291467E-06
vn 2.169609E-05 -1 1.192093E-07
vn 0 -1 -3.496804E-06
vn 7.232027E-06 -1 -2.291467E-06
vn 1 0 0
vn 1 0 0
vn 1 0 0
vn 1 0 0
vn 0 -1.192093E-07 -1
vn 0 -1.192093E-07 -1
vn 0 -1.192093E-07 -1
vn 0 -1.192093E-07 -1
vn 3.695488E-06 5.960404E-08 1
vn 3.576279E-06 8.526514E-14 1
vn 3.8147E-06 1.192093E-07 1
vn 3.695488E-06 5.960404E-08 1

vt 0 0
vt -0.0625 -2.384187E-07
vt 0 0.375
vt -0.125 0.375
vt 1.372149E-06 0.01027469
vt -0.1250014 0.01027471
vt 2.483523E-09 0.3904476
vt -0.125 0.3904476
vt 0.06250271 -1.12752E-06
vt 2.712008E-06 -9.040028E-07
vt 0.1250027 0.3749991
vt 2.712008E-06 0.3749991
vt 0.125 0
vt 0 0
vt 0.125 0.375
vt 0 0.375
vt 0 0
vt 0.125 0
vt 0 -0.125
vt 0.125 -0.125
vt 0 -0.125
vt -0.0625 -0.1250014
vt 0 0
vt -0.0625 1.370907E-06

g Left Gun
usemtl Default_Prototype
f 3/3/3 4/4/4 2/2/2 1/1/1
f 7/7/7 8/8/8 6/6/6 5/5/5
f 11/11/11 12/12/12 10/10/10 9/9/9
f 15/15/15 16/16/16 14/14/14 13/13/13
f 19/19/19 20/20/20 18/18/18 17/17/17
f 23/23/23 24/24/24 22/22/22 21/21/21

