# Exported from ProBuilder
# http://www.procore3d.com/probuilder
# 5/19/2018 3:18:42 PM

mtllib ./Mouth.mtl
o Mouth

g Mouth Base
v -1.0625 0.6875 -1.75
v -1.3125 0.6875 -1.75
v -1.0625 0.8125 -1.75
v -1.3125 0.8125 -1.75
v -1.3125 0.6875 -1.75
v -1.3125 0.6875 -1.78125
v -1.3125 0.8125 -1.75
v -1.3125 0.8125 -1.78125
v -1.3125 0.6875 -1.78125
v -1.0625 0.6875 -1.78125
v -1.3125 0.8125 -1.78125
v -1.0625 0.8125 -1.78125
v -1.0625 0.6875 -1.78125
v -1.0625 0.6875 -1.75
v -1.0625 0.8125 -1.78125
v -1.0625 0.8125 -1.75
v -1.0625 0.8125 -1.75
v -1.3125 0.8125 -1.75
v -1.0625 0.8125 -1.78125
v -1.3125 0.8125 -1.78125
v -1.0625 0.6875 -1.78125
v -1.3125 0.6875 -1.78125
v -1.0625 0.6875 -1.75
v -1.3125 0.6875 -1.75

vn 0 0 1
vn 0 0 1
vn 0 0 1
vn 0 0 1
vn -1 0 0
vn -1 0 0
vn -1 0 0
vn -1 0 0
vn 0 0 -1
vn 0 0 -1
vn 0 0 -1
vn 0 0 -1
vn 1 0 0
vn 1 0 0
vn 1 0 0
vn 1 0 0
vn 0 1 0
vn 0 1 0
vn 0 1 0
vn 0 1 0
vn 0 -1 0
vn 0 -1 0
vn 0 -1 0
vn 0 -1 0

vt 0.125 0
vt -0.125 0
vt 0.125 0.125
vt -0.125 0.125
vt 0.03125 0
vt 0 0
vt 0.03125 0.125
vt 0 0.125
vt 0.125 0
vt -0.125 0
vt 0.125 0.125
vt -0.125 0.125
vt 0 0
vt -0.03125 0
vt 0 0.125
vt -0.03125 0.125
vt -0.125 0.03125
vt 0.125 0.03125
vt -0.125 0
vt 0.125 0
vt 0.125 0
vt -0.125 0
vt 0.125 0.03125
vt -0.125 0.03125

g Mouth Base
usemtl Default_Prototype
f 3/3/3 4/4/4 2/2/2 1/1/1
f 7/7/7 8/8/8 6/6/6 5/5/5
f 11/11/11 12/12/12 10/10/10 9/9/9
f 15/15/15 16/16/16 14/14/14 13/13/13
f 19/19/19 20/20/20 18/18/18 17/17/17
f 23/23/23 24/24/24 22/22/22 21/21/21

