# Exported from ProBuilder
# http://www.procore3d.com/probuilder
# 5/19/2018 3:19:05 PM

mtllib ./Teeth.mtl
o Teeth

g Cube (5)
v -1.21875 0.6875 -1.78125
v -1.25 0.6875 -1.78125
v -1.1875 0.75 -1.78125
v -1.25 0.75 -1.78125
v -1.25 0.6875 -1.78125
v -1.25 0.6875 -1.8125
v -1.25 0.75 -1.78125
v -1.25 0.75 -1.8125
v -1.25 0.6875 -1.8125
v -1.21875 0.6875 -1.8125
v -1.25 0.75 -1.8125
v -1.1875 0.75 -1.8125
v -1.21875 0.6875 -1.8125
v -1.21875 0.6875 -1.78125
v -1.1875 0.75 -1.8125
v -1.1875 0.75 -1.78125
v -1.21875 0.8125 -1.78125
v -1.25 0.8125 -1.78125
v -1.21875 0.8125 -1.8125
v -1.25 0.8125 -1.8125
v -1.21875 0.6875 -1.8125
v -1.25 0.6875 -1.8125
v -1.21875 0.6875 -1.78125
v -1.25 0.6875 -1.78125
v -1.1875 0.75 -1.78125
v -1.25 0.75 -1.78125
v -1.21875 0.8125 -1.78125
v -1.25 0.8125 -1.78125
v -1.1875 0.75 -1.8125
v -1.1875 0.75 -1.78125
v -1.21875 0.8125 -1.8125
v -1.21875 0.8125 -1.78125
v -1.25 0.75 -1.78125
v -1.25 0.75 -1.8125
v -1.25 0.8125 -1.78125
v -1.25 0.8125 -1.8125
v -1.25 0.75 -1.8125
v -1.1875 0.75 -1.8125
v -1.25 0.8125 -1.8125
v -1.21875 0.8125 -1.8125

vn 0 0 1
vn 0 0 1
vn 0 0 1
vn 0 0 1
vn -1 0 0
vn -1 0 0
vn -1 0 0
vn -1 0 0
vn 0 0 -1
vn 0 0 -1
vn 0 0 -1
vn 0 0 -1
vn 0.8944272 -0.4472136 0
vn 0.8944272 -0.4472136 0
vn 0.8944272 -0.4472136 0
vn 0.8944272 -0.4472136 0
vn 0 1 0
vn 0 1 0
vn 0 1 0
vn 0 1 0
vn 0 -1 0
vn 0 -1 0
vn 0 -1 0
vn 0 -1 0
vn 0 0 1
vn 0 0 1
vn 0 0 1
vn 0 0 1
vn 0.8944272 0.4472136 0
vn 0.8944272 0.4472136 0
vn 0.8944272 0.4472136 0
vn 0.8944272 0.4472136 0
vn -1 0 0
vn -1 0 0
vn -1 0 0
vn -1 0 0
vn 0 0 -1
vn 0 0 -1
vn 0 0 -1
vn 0 0 -1

vt 0.125 0
vt 0.09375 0
vt 0.15625 0.0625
vt 0.09375 0.0625
vt 0.03125 0
vt 0 0
vt 0.03125 0.0625
vt 0 0.0625
vt -0.09375 0
vt -0.125 0
vt -0.09375 0.0625
vt -0.15625 0.0625
vt 0 0.0559017
vt -0.03125 0.0559017
vt 0 0.1257788
vt -0.03125 0.1257788
vt -0.125 0.03125
vt -0.09375 0.03125
vt -0.125 0
vt -0.09375 0
vt 0.125 0
vt 0.09375 0
vt 0.125 0.03125
vt 0.09375 0.03125
vt 0.15625 0.0625
vt 0.09375 0.0625
vt 0.125 0.125
vt 0.09375 0.125
vt 0 -0.01397542
vt -0.03125 -0.01397542
vt 0 0.0559017
vt -0.03125 0.0559017
vt 0.03125 0.0625
vt 0 0.0625
vt 0.03125 0.125
vt 0 0.125
vt -0.09375 0.0625
vt -0.15625 0.0625
vt -0.09375 0.125
vt -0.125 0.125

g Cube (5)
usemtl Default_Prototype
f 3/3/3 4/4/4 2/2/2 1/1/1
f 7/7/7 8/8/8 6/6/6 5/5/5
f 11/11/11 12/12/12 10/10/10 9/9/9
f 15/15/15 16/16/16 14/14/14 13/13/13
f 19/19/19 20/20/20 18/18/18 17/17/17
f 23/23/23 24/24/24 22/22/22 21/21/21
f 27/27/27 28/28/28 26/26/26 25/25/25
f 31/31/31 32/32/32 30/30/30 29/29/29
f 35/35/35 36/36/36 34/34/34 33/33/33
f 39/39/39 40/40/40 38/38/38 37/37/37

g Cube (6)
v -1.28125 0.6875 -1.78125
v -1.3125 0.6875 -1.78125
v -1.28125 0.8125 -1.78125
v -1.3125 0.8125 -1.78125
v -1.3125 0.6875 -1.78125
v -1.3125 0.6875 -1.8125
v -1.3125 0.8125 -1.78125
v -1.3125 0.8125 -1.8125
v -1.3125 0.6875 -1.8125
v -1.28125 0.6875 -1.8125
v -1.3125 0.8125 -1.8125
v -1.28125 0.8125 -1.8125
v -1.28125 0.6875 -1.8125
v -1.28125 0.6875 -1.78125
v -1.28125 0.8125 -1.8125
v -1.28125 0.8125 -1.78125
v -1.28125 0.8125 -1.78125
v -1.3125 0.8125 -1.78125
v -1.28125 0.8125 -1.8125
v -1.3125 0.8125 -1.8125
v -1.28125 0.6875 -1.8125
v -1.3125 0.6875 -1.8125
v -1.28125 0.6875 -1.78125
v -1.3125 0.6875 -1.78125

vn 0 0 1
vn 0 0 1
vn 0 0 1
vn 0 0 1
vn -1 0 0
vn -1 0 0
vn -1 0 0
vn -1 0 0
vn 0 0 -1
vn 0 0 -1
vn 0 0 -1
vn 0 0 -1
vn 1 0 0
vn 1 0 0
vn 1 0 0
vn 1 0 0
vn 0 1 0
vn 0 1 0
vn 0 1 0
vn 0 1 0
vn 0 -1 0
vn 0 -1 0
vn 0 -1 0
vn 0 -1 0

vt 0.125 0
vt 0.09375 0
vt 0.125 0.125
vt 0.09375 0.125
vt 0.03125 0
vt 0 0
vt 0.03125 0.125
vt 0 0.125
vt -0.09375 0
vt -0.125 0
vt -0.09375 0.125
vt -0.125 0.125
vt 0 0
vt -0.03125 0
vt 0 0.125
vt -0.03125 0.125
vt -0.125 0.03125
vt -0.09375 0.03125
vt -0.125 0
vt -0.09375 0
vt 0.125 0
vt 0.09375 0
vt 0.125 0.03125
vt 0.09375 0.03125

g Cube (6)
usemtl Default_Prototype
f 43/43/43 44/44/44 42/42/42 41/41/41
f 47/47/47 48/48/48 46/46/46 45/45/45
f 51/51/51 52/52/52 50/50/50 49/49/49
f 55/55/55 56/56/56 54/54/54 53/53/53
f 59/59/59 60/60/60 58/58/58 57/57/57
f 63/63/63 64/64/64 62/62/62 61/61/61

g Cube (3)
v -1.0625 0.6875 -1.78125
v -1.09375 0.6875 -1.78125
v -1.0625 0.8125 -1.78125
v -1.09375 0.8125 -1.78125
v -1.09375 0.6875 -1.78125
v -1.09375 0.6875 -1.8125
v -1.09375 0.8125 -1.78125
v -1.09375 0.8125 -1.8125
v -1.09375 0.6875 -1.8125
v -1.0625 0.6875 -1.8125
v -1.09375 0.8125 -1.8125
v -1.0625 0.8125 -1.8125
v -1.0625 0.6875 -1.8125
v -1.0625 0.6875 -1.78125
v -1.0625 0.8125 -1.8125
v -1.0625 0.8125 -1.78125
v -1.0625 0.8125 -1.78125
v -1.09375 0.8125 -1.78125
v -1.0625 0.8125 -1.8125
v -1.09375 0.8125 -1.8125
v -1.0625 0.6875 -1.8125
v -1.09375 0.6875 -1.8125
v -1.0625 0.6875 -1.78125
v -1.09375 0.6875 -1.78125

vn 0 0 1
vn 0 0 1
vn 0 0 1
vn 0 0 1
vn -1 0 0
vn -1 0 0
vn -1 0 0
vn -1 0 0
vn 0 0 -1
vn 0 0 -1
vn 0 0 -1
vn 0 0 -1
vn 1 0 0
vn 1 0 0
vn 1 0 0
vn 1 0 0
vn 0 1 0
vn 0 1 0
vn 0 1 0
vn 0 1 0
vn 0 -1 0
vn 0 -1 0
vn 0 -1 0
vn 0 -1 0

vt 0.125 0
vt 0.09375 0
vt 0.125 0.125
vt 0.09375 0.125
vt 0.03125 0
vt 0 0
vt 0.03125 0.125
vt 0 0.125
vt -0.09375 0
vt -0.125 0
vt -0.09375 0.125
vt -0.125 0.125
vt 0 0
vt -0.03125 0
vt 0 0.125
vt -0.03125 0.125
vt -0.125 0.03125
vt -0.09375 0.03125
vt -0.125 0
vt -0.09375 0
vt 0.125 0
vt 0.09375 0
vt 0.125 0.03125
vt 0.09375 0.03125

g Cube (3)
usemtl Default_Prototype
f 67/67/67 68/68/68 66/66/66 65/65/65
f 71/71/71 72/72/72 70/70/70 69/69/69
f 75/75/75 76/76/76 74/74/74 73/73/73
f 79/79/79 80/80/80 78/78/78 77/77/77
f 83/83/83 84/84/84 82/82/82 81/81/81
f 87/87/87 88/88/88 86/86/86 85/85/85

g Cube (4)
v -1.125 0.6875 -1.78125
v -1.15625 0.6875 -1.78125
v -1.125 0.75 -1.78125
v -1.1875 0.75 -1.78125
v -1.15625 0.6875 -1.78125
v -1.15625 0.6875 -1.8125
v -1.1875 0.75 -1.78125
v -1.1875 0.75 -1.812574
v -1.15625 0.6875 -1.8125
v -1.125 0.6875 -1.8125
v -1.1875 0.75 -1.812574
v -1.125 0.75 -1.812574
v -1.125 0.6875 -1.8125
v -1.125 0.6875 -1.78125
v -1.125 0.75 -1.812574
v -1.125 0.75 -1.78125
v -1.125 0.8125 -1.78125
v -1.15625 0.8125 -1.78125
v -1.125 0.8125 -1.812574
v -1.15625 0.8125 -1.812574
v -1.125 0.6875 -1.8125
v -1.15625 0.6875 -1.8125
v -1.125 0.6875 -1.78125
v -1.15625 0.6875 -1.78125
v -1.125 0.75 -1.78125
v -1.1875 0.75 -1.78125
v -1.125 0.8125 -1.78125
v -1.15625 0.8125 -1.78125
v -1.125 0.75 -1.812574
v -1.125 0.75 -1.78125
v -1.125 0.8125 -1.812574
v -1.125 0.8125 -1.78125
v -1.1875 0.75 -1.78125
v -1.1875 0.75 -1.812574
v -1.15625 0.8125 -1.78125
v -1.15625 0.8125 -1.812574
v -1.1875 0.75 -1.812574
v -1.125 0.75 -1.812574
v -1.15625 0.8125 -1.812574
v -1.125 0.8125 -1.812574

vn 0 0 1
vn 0 0 1
vn 0 0 1
vn 0 0 1
vn -0.8944272 -0.4472136 0
vn -0.8944272 -0.4472136 0
vn -0.8944272 -0.4472136 0
vn -0.8944272 -0.4472136 0
vn 0 -0.001178741 -0.9999993
vn 0 -0.001178741 -0.9999993
vn 0 -0.001178741 -0.9999993
vn 0 -0.001178741 -0.9999993
vn 1 0 0
vn 1 0 0
vn 1 0 0
vn 1 0 0
vn 0 1 0
vn 0 1 0
vn 0 1 0
vn 0 1 0
vn 0 -1 0
vn 0 -1 0
vn 0 -1 0
vn 0 -1 0
vn 0 0 1
vn 0 0 1
vn 0 0 1
vn 0 0 1
vn 1 0 0
vn 1 0 0
vn 1 0 0
vn 1 0 0
vn -0.8944272 0.4472136 0
vn -0.8944272 0.4472136 0
vn -0.8944272 0.4472136 0
vn -0.8944272 0.4472136 0
vn 0 0 -1
vn 0 0 -1
vn 0 0 -1
vn 0 0 -1

vt 0.125 0
vt 0.09375 0
vt 0.125 0.0625
vt 0.0625 0.0625
vt 0.03125 -0.04192627
vt 0 -0.04192627
vt 0.03125 0.02795085
vt -7.367134E-05 0.02795085
vt -0.09375 0
vt -0.125 0
vt -0.0625 0.06250004
vt -0.125 0.06250004
vt 0 0
vt -0.03125 0
vt 7.367134E-05 0.0625
vt -0.03125 0.0625
vt -0.125 0.03125
vt -0.09375 0.03125
vt -0.125 -7.367134E-05
vt -0.09375 -7.367134E-05
vt 0.125 0
vt 0.09375 0
vt 0.125 0.03125
vt 0.09375 0.03125
vt 0.125 0.0625
vt 0.0625 0.0625
vt 0.125 0.125
vt 0.09375 0.125
vt 7.367134E-05 0.0625
vt -0.03125 0.0625
vt 7.367134E-05 0.125
vt -0.03125 0.125
vt 0.03125 0.08385254
vt -7.367134E-05 0.08385254
vt 0.03125 0.1537297
vt -7.367134E-05 0.1537297
vt -0.0625 0.0625
vt -0.125 0.0625
vt -0.09375 0.125
vt -0.125 0.125

g Cube (4)
usemtl Default_Prototype
f 91/91/91 92/92/92 90/90/90 89/89/89
f 95/95/95 96/96/96 94/94/94 93/93/93
f 99/99/99 100/100/100 98/98/98 97/97/97
f 103/103/103 104/104/104 102/102/102 101/101/101
f 107/107/107 108/108/108 106/106/106 105/105/105
f 111/111/111 112/112/112 110/110/110 109/109/109
f 115/115/115 116/116/116 114/114/114 113/113/113
f 119/119/119 120/120/120 118/118/118 117/117/117
f 123/123/123 124/124/124 122/122/122 121/121/121
f 127/127/127 128/128/128 126/126/126 125/125/125

