# Exported from ProBuilder
# http://www.procore3d.com/probuilder
# 5/19/2018 3:17:13 PM

mtllib ./Torso.mtl
o Torso

g Torso
v -0.9375 0.25 -1.25
v -1.4375 0.25 -1.25
v -1 0.625 -1.3125
v -1.375 0.625 -1.3125
v -1.4375 0.25 -1.25
v -1.4375 0.25 -1.75
v -1.375 0.625 -1.3125
v -1.375 0.625 -1.6875
v -1.4375 0.25 -1.75
v -0.9375 0.25 -1.75
v -1.375 0.625 -1.6875
v -1 0.625 -1.6875
v -0.9375 0.25 -1.75
v -0.9375 0.25 -1.25
v -1 0.625 -1.6875
v -1 0.625 -1.3125
v -1 0.625 -1.3125
v -1.375 0.625 -1.3125
v -1 0.625 -1.6875
v -1.375 0.625 -1.6875
v -0.9375 0.25 -1.75
v -1.4375 0.25 -1.75
v -0.9375 0.25 -1.25
v -1.4375 0.25 -1.25

vn 0 0.164399 0.9863939
vn 0 0.164399 0.9863939
vn 0 0.164399 0.986394
vn 0 0.164399 0.9863939
vn -0.9863939 0.164399 0
vn -0.9863939 0.164399 0
vn -0.986394 0.164399 0
vn -0.9863939 0.164399 0
vn 0 0.164399 -0.9863939
vn 0 0.164399 -0.9863939
vn 0 0.164399 -0.986394
vn 0 0.164399 -0.9863939
vn 0.9863939 0.164399 0
vn 0.9863939 0.164399 0
vn 0.986394 0.164399 0
vn 0.9863939 0.164399 0
vn 0 1 0
vn 0 1 0
vn 0 1 0
vn 0 1 0
vn 0 -1 0
vn 0 -1 0
vn 0 -1 0
vn 0 -1 0

vt 0.25 -0.164399
vt -0.25 -0.164399
vt 0.1875 0.2157737
vt -0.1875 0.2157737
vt 0.25 -0.164399
vt -0.25 -0.164399
vt 0.1875 0.2157737
vt -0.1875 0.2157737
vt 0.25 -0.164399
vt -0.25 -0.164399
vt 0.1875 0.2157737
vt -0.1875 0.2157737
vt 0.25 -0.164399
vt -0.25 -0.164399
vt 0.1875 0.2157737
vt -0.1875 0.2157737
vt -0.1875 0.1875
vt 0.1875 0.1875
vt -0.1875 -0.1875
vt 0.1875 -0.1875
vt 0.25 -0.25
vt -0.25 -0.25
vt 0.25 0.25
vt -0.25 0.25

g Torso
usemtl Default_Prototype
f 3/3/3 4/4/4 2/2/2 1/1/1
f 7/7/7 8/8/8 6/6/6 5/5/5
f 11/11/11 12/12/12 10/10/10 9/9/9
f 15/15/15 16/16/16 14/14/14 13/13/13
f 19/19/19 20/20/20 18/18/18 17/17/17
f 23/23/23 24/24/24 22/22/22 21/21/21

